<svg xmlns="http://www.w3.org/2000/svg" xmlns:xlink="http://www.w3.org/1999/xlink" version="1.1" data-diagram-type="SEQUENCE" style="width:1503px;height:818px;background:#FFFFFF;" width="1503px" height="818px" viewBox="0 0 1503 818" zoomAndPan="magnify" preserveAspectRatio="none" contentStyleType="text/css"><?plantuml 1.2026.7beta11?><defs/><g font-family="sans-serif" lengthAdjust="spacing"><rect x="832.285" y="288.227" width="589.568" height="98.398" fill="none" style="stroke:#000;stroke-width:1.5;"/><g><title>Orchestrator</title><rect x="53.944" y="86.297" width="8" height="644.922" fill="#000" fill-opacity="0"/><line x1="57.444" y1="86.297" x2="57.444" y2="731.219" style="stroke:#181818;stroke-width:0.5;stroke-dasharray:5,5;"/></g><g><title>LazerPay .8001</title><rect x="354.879" y="86.297" width="8" height="644.922" fill="#000" fill-opacity="0"/><line x1="358.379" y1="86.297" x2="358.379" y2="731.219" style="stroke:#181818;stroke-width:0.5;stroke-dasharray:5,5;"/></g><g><title>RupeeBank .8002</title><rect x="722.072" y="86.297" width="8" height="644.922" fill="#000" fill-opacity="0"/><line x1="725.572" y1="86.297" x2="725.572" y2="731.219" style="stroke:#181818;stroke-width:0.5;stroke-dasharray:5,5;"/></g><g><title>PostgreSQL</title><rect x="844.785" y="86.297" width="8" height="644.922" fill="#000" fill-opacity="0"/><line x1="848.285" y1="86.297" x2="848.285" y2="731.219" style="stroke:#181818;stroke-width:0.5;stroke-dasharray:5,5;"/></g><g><title>Recovery Agent .8003</title><rect x="1154.817" y="86.297" width="8" height="644.922" fill="#000" fill-opacity="0"/><line x1="1158.317" y1="86.297" x2="1158.317" y2="731.219" style="stroke:#181818;stroke-width:0.5;stroke-dasharray:5,5;"/></g><text x="10" y="82.995" fill="#000" font-size="14" textLength="88.888">Orchestrator</text><ellipse cx="57.444" cy="18.5" rx="8" ry="8" fill="#E2E2F0" style="stroke:#181818;stroke-width:0.5;"/><path d="M57.444,26.5 L57.444,53.5 M44.444,34.5 L70.444,34.5 M57.444,53.5 L44.444,68.5 M57.444,53.5 L70.444,68.5" style="stroke:#181818;stroke-width:0.5;" fill="none"/><rect x="297.28" y="55" width="122.199" height="30.297" fill="#E2E2F0" style="stroke:#181818;stroke-width:0.5;" rx="2.5" ry="2.5"/><text x="304.28" y="74.995" fill="#000" font-size="14" textLength="108.199">LazerPay :8001</text><rect x="656.235" y="55" width="138.674" height="30.297" fill="#E2E2F0" style="stroke:#181818;stroke-width:0.5;" rx="2.5" ry="2.5"/><text x="663.235" y="74.995" fill="#000" font-size="14" textLength="124.674">RupeeBank :8002</text><text x="804.909" y="82.995" fill="#000" font-size="14" textLength="80.753">PostgreSQL</text><path d="M830.285,34 C830.285,24 848.285,24 848.285,24 C848.285,24 866.285,24 866.285,34 L866.285,60 C866.285,70 848.285,70 848.285,70 C848.285,70 830.285,70 830.285,60 L830.285,34" style="stroke:#181818;stroke-width:0.5;" fill="#E2E2F0"/><path d="M830.285,34 C830.285,44 848.285,44 848.285,44 C848.285,44 866.285,44 866.285,34" style="stroke:#181818;stroke-width:0.5;" fill="none"/><rect x="1073.203" y="55" width="170.229" height="30.297" fill="#E2E2F0" style="stroke:#181818;stroke-width:0.5;" rx="2.5" ry="2.5"/><text x="1080.203" y="74.995" fill="#000" font-size="14" textLength="156.229">Recovery Agent :8003</text><text x="10" y="744.214" fill="#000" font-size="14" textLength="88.888">Orchestrator</text><ellipse cx="57.444" cy="756.016" rx="8" ry="8" fill="#E2E2F0" style="stroke:#181818;stroke-width:0.5;"/><path d="M57.444,764.016 L57.444,791.016 M44.444,772.016 L70.444,772.016 M57.444,791.016 L44.444,806.016 M57.444,791.016 L70.444,806.016" style="stroke:#181818;stroke-width:0.5;" fill="none"/><rect x="297.28" y="731.219" width="122.199" height="30.297" fill="#E2E2F0" style="stroke:#181818;stroke-width:0.5;" rx="2.5" ry="2.5"/><text x="304.28" y="751.214" fill="#000" font-size="14" textLength="108.199">LazerPay :8001</text><rect x="656.235" y="731.219" width="138.674" height="30.297" fill="#E2E2F0" style="stroke:#181818;stroke-width:0.5;" rx="2.5" ry="2.5"/><text x="663.235" y="751.214" fill="#000" font-size="14" textLength="124.674">RupeeBank :8002</text><text x="804.909" y="744.214" fill="#000" font-size="14" textLength="80.753">PostgreSQL</text><path d="M830.285,757.516 C830.285,747.516 848.285,747.516 848.285,747.516 C848.285,747.516 866.285,747.516 866.285,757.516 L866.285,783.516 C866.285,793.516 848.285,793.516 848.285,793.516 C848.285,793.516 830.285,793.516 830.285,783.516 L830.285,757.516" style="stroke:#181818;stroke-width:0.5;" fill="#E2E2F0"/><path d="M830.285,757.516 C830.285,767.516 848.285,767.516 848.285,767.516 C848.285,767.516 866.285,767.516 866.285,757.516" style="stroke:#181818;stroke-width:0.5;" fill="none"/><rect x="1073.203" y="731.219" width="170.229" height="30.297" fill="#E2E2F0" style="stroke:#181818;stroke-width:0.5;" rx="2.5" ry="2.5"/><text x="1080.203" y="751.214" fill="#000" font-size="14" textLength="156.229">Recovery Agent :8003</text><polygon points="346.379,111.43,356.379,115.43,346.379,119.43,350.379,115.43" fill="#181818" style="stroke:#181818;stroke-width:1;stroke-linejoin:miter;stroke-miterlimit:10;"/><line x1="57.444" y1="115.43" x2="352.379" y2="115.43" style="stroke:#181818;stroke-width:1;"/><text x="64.444" y="110.364" fill="#000" font-size="13" textLength="186.291">POST /api/payments/process</text><polygon points="713.572,140.563,723.572,144.563,713.572,148.563,717.572,144.563" fill="#181818" style="stroke:#181818;stroke-width:1;stroke-linejoin:miter;stroke-miterlimit:10;"/><line x1="358.379" y1="144.563" x2="719.572" y2="144.563" style="stroke:#181818;stroke-width:1;"/><text x="365.379" y="139.497" fill="#000" font-size="13" textLength="128.261">POST /api/authorize</text><polygon points="369.379,169.695,359.379,173.695,369.379,177.695,365.379,173.695" fill="#181818" style="stroke:#181818;stroke-width:1;stroke-linejoin:miter;stroke-miterlimit:10;"/><line x1="363.379" y1="173.695" x2="724.572" y2="173.695" style="stroke:#181818;stroke-width:1;stroke-dasharray:2,2;"/><text x="375.379" y="168.629" fill="#000" font-size="13" textLength="343.192">{success: false, failure_code: INSUFFICIENT_FUNDS}</text><polygon points="836.285,213.961,846.285,217.961,836.285,221.961,840.285,217.961" fill="#181818" style="stroke:#181818;stroke-width:1;stroke-linejoin:miter;stroke-miterlimit:10;"/><line x1="358.379" y1="217.961" x2="842.285" y2="217.961" style="stroke:#181818;stroke-width:1;"/><text x="365.379" y="197.762" fill="#000" font-size="13" textLength="173.545">UPDATE attempt → FAILED</text><text x="365.379" y="212.895" fill="#000" font-size="13" textLength="210.66">INSERT ledger PAYMENT_FAILED</text><polygon points="68.444,243.094,58.444,247.094,68.444,251.094,64.444,247.094" fill="#181818" style="stroke:#181818;stroke-width:1;stroke-linejoin:miter;stroke-miterlimit:10;"/><line x1="62.444" y1="247.094" x2="357.379" y2="247.094" style="stroke:#181818;stroke-width:1;stroke-dasharray:2,2;"/><text x="74.444" y="242.028" fill="#000" font-size="13" textLength="276.936">{attempt_id, status: FAILED, failure_code}</text><polygon points="836.285,272.227,846.285,276.227,836.285,280.227,840.285,276.227" fill="#181818" style="stroke:#181818;stroke-width:1;stroke-linejoin:miter;stroke-miterlimit:10;"/><line x1="57.444" y1="276.227" x2="842.285" y2="276.227" style="stroke:#181818;stroke-width:1;"/><text x="64.444" y="271.161" fill="#000" font-size="13" textLength="254.268">subscription.consecutive_failures += 1</text><path d="M832.285,288.227 L908.909,288.227 L908.909,295.359 L898.909,305.359 L832.285,305.359 L832.285,288.227" style="stroke:#000;stroke-width:1.5;" fill="#EEE"/><rect x="832.285" y="288.227" width="589.568" height="98.398" fill="none" style="stroke:#000;stroke-width:1.5;"/><text x="847.285" y="301.293" fill="#000" font-size="13" textLength="31.624" font-weight="700">loop</text><text x="923.909" y="300.437" fill="#000" font-size="11" textLength="110.392" font-weight="700">[every 5 seconds]</text><polygon points="859.285,332.492,849.285,336.492,859.285,340.492,855.285,336.492" fill="#181818" style="stroke:#181818;stroke-width:1;stroke-linejoin:miter;stroke-miterlimit:10;"/><line x1="853.285" y1="336.492" x2="1157.317" y2="336.492" style="stroke:#181818;stroke-width:1;"/><text x="865.285" y="331.426" fill="#000" font-size="13" textLength="247.47">poll failed attempts awaiting recovery</text><line x1="1158.317" y1="365.625" x2="1200.317" y2="365.625" style="stroke:#181818;stroke-width:1;"/><line x1="1200.317" y1="365.625" x2="1200.317" y2="378.625" style="stroke:#181818;stroke-width:1;"/><line x1="1159.317" y1="378.625" x2="1200.317" y2="378.625" style="stroke:#181818;stroke-width:1;"/><polygon points="1169.317,374.625,1159.317,378.625,1169.317,382.625,1165.317,378.625" fill="#181818" style="stroke:#181818;stroke-width:1;stroke-linejoin:miter;stroke-miterlimit:10;"/><text x="1165.317" y="360.559" fill="#000" font-size="13" textLength="233.537">idempotency check (no action yet?)</text><polygon points="859.285,432.891,849.285,436.891,859.285,440.891,855.285,436.891" fill="#181818" style="stroke:#181818;stroke-width:1;stroke-linejoin:miter;stroke-miterlimit:10;"/><line x1="853.285" y1="436.891" x2="1157.317" y2="436.891" style="stroke:#181818;stroke-width:1;"/><text x="865.285" y="416.692" fill="#000" font-size="13" textLength="275.247">load person, merchant, bank, subscription</text><text x="865.285" y="431.825" fill="#000" font-size="13" textLength="121.082">balance, tx history</text><line x1="1158.317" y1="481.156" x2="1200.317" y2="481.156" style="stroke:#181818;stroke-width:1;"/><line x1="1200.317" y1="481.156" x2="1200.317" y2="494.156" style="stroke:#181818;stroke-width:1;"/><line x1="1159.317" y1="494.156" x2="1200.317" y2="494.156" style="stroke:#181818;stroke-width:1;"/><polygon points="1169.317,490.156,1159.317,494.156,1169.317,498.156,1165.317,494.156" fill="#181818" style="stroke:#181818;stroke-width:1;stroke-linejoin:miter;stroke-miterlimit:10;"/><text x="1165.317" y="460.958" fill="#000" font-size="13" textLength="266.475">diagnose_failure → "Temporary shortfall"</text><text x="1165.317" y="476.09" fill="#000" font-size="13" textLength="319.973">decide_recovery → RETRY (scheduled_for = +1h)</text><polygon points="859.285,519.289,849.285,523.289,859.285,527.289,855.285,523.289" fill="#181818" style="stroke:#181818;stroke-width:1;stroke-linejoin:miter;stroke-miterlimit:10;"/><line x1="853.285" y1="523.289" x2="1157.317" y2="523.289" style="stroke:#181818;stroke-width:1;"/><text x="865.285" y="518.223" fill="#000" font-size="13" textLength="286.032">INSERT recovery_action (RETRY, scheduled)</text><polygon points="369.379,548.422,359.379,552.422,369.379,556.422,365.379,552.422" fill="#181818" style="stroke:#181818;stroke-width:1;stroke-linejoin:miter;stroke-miterlimit:10;"/><line x1="363.379" y1="552.422" x2="1157.317" y2="552.422" style="stroke:#181818;stroke-width:1;"/><text x="375.379" y="547.356" fill="#000" font-size="13" textLength="245.534">POST /api/payments/retry (when due)</text><polygon points="713.572,577.555,723.572,581.555,713.572,585.555,717.572,581.555" fill="#181818" style="stroke:#181818;stroke-width:1;stroke-linejoin:miter;stroke-miterlimit:10;"/><line x1="358.379" y1="581.555" x2="719.572" y2="581.555" style="stroke:#181818;stroke-width:1;"/><text x="365.379" y="576.489" fill="#000" font-size="13" textLength="279.373">POST /api/authorize (attempt_number = 2)</text><polygon points="369.379,606.688,359.379,610.688,369.379,614.688,365.379,610.688" fill="#181818" style="stroke:#181818;stroke-width:1;stroke-linejoin:miter;stroke-miterlimit:10;"/><line x1="363.379" y1="610.688" x2="724.572" y2="610.688" style="stroke:#181818;stroke-width:1;stroke-dasharray:2,2;"/><text x="375.379" y="605.622" fill="#000" font-size="13" textLength="212.386">{success: true}   ' salary arrived</text><polygon points="836.285,635.82,846.285,639.82,836.285,643.82,840.285,639.82" fill="#181818" style="stroke:#181818;stroke-width:1;stroke-linejoin:miter;stroke-miterlimit:10;"/><line x1="358.379" y1="639.82" x2="842.285" y2="639.82" style="stroke:#181818;stroke-width:1;"/><text x="365.379" y="634.754" fill="#000" font-size="13" textLength="304.948">attempt SETTLED + ledger PAYMENT_SETTLED</text><polygon points="1146.317,664.953,1156.317,668.953,1146.317,672.953,1150.317,668.953" fill="#181818" style="stroke:#181818;stroke-width:1;stroke-linejoin:miter;stroke-miterlimit:10;"/><line x1="358.379" y1="668.953" x2="1152.317" y2="668.953" style="stroke:#181818;stroke-width:1;stroke-dasharray:2,2;"/><text x="365.379" y="663.887" fill="#000" font-size="13" textLength="236.996">{attempt_id: new, status: SETTLED}</text><polygon points="859.285,709.219,849.285,713.219,859.285,717.219,855.285,713.219" fill="#181818" style="stroke:#181818;stroke-width:1;stroke-linejoin:miter;stroke-miterlimit:10;"/><line x1="853.285" y1="713.219" x2="1157.317" y2="713.219" style="stroke:#181818;stroke-width:1;"/><text x="865.285" y="693.02" fill="#000" font-size="13" textLength="244.67">recovery_action.outcome = SUCCESS</text><text x="865.285" y="708.153" fill="#000" font-size="13" textLength="243.375">subscription.consecutive_failures = 0</text><?plantuml-src XPBTQjj048NlzHI3RseJvxSKYY0jTYo3YPkebdmHC8ZnxiHU8k-AtLLIf_Ys3z17x9Dqf4Y94_fp9SIUCtDcvaFXZOLhAzRalCNg1nt4P8gSWWAjLq8Lg3rqflX8DiOjX1zFJauxbMmQlvRCoe9eYFgkrfpLck5b8D7Z4Xr19pREhombNwVrssZuna_2t9FTmc15_5yLULyBPuCWUCe4Xv-uRGZnTPB2CHRgkC3jXjNkkB16a7F1DAv4myjz4PP-RQnwf61u2OTDZU-k59KZX5lC7VNve_BIKYQCf10cLybyF9vSJAAhD1lFhqR9hgaz6eOmZqU3D0BqdZQ5Xry_Vi9uC9b6euLcOpHB8IUv8WlnuEPBNQ5-hIjmYQTfE4DJ85Eo3ywZBpdEa_HrdjtU0gh-hbmwOLNXbT57mcX7elJgdhB6vE3W74w383Uc0Agt-W5OPBHq0V16sqA5oVEw4ybs6WVuWCehlGBRdEJPCXk4e2IhZ2Sjji3WY3leQWCegYom9V-v5v2MmKkFtA24WgmpkWyROjhutdrOCYhzLvCiz19pr8AFuR_1MZa6SXkyT9OALzguvodhlNVIAev57j7nbJrVC-yij2J1GRDsWbewYzBP3NGTfvObJvpTCl3dS72wxkt5RGxOEhDcicxjvi2jk_Ny1KXBdjjs7zQaGPRK-pUPq6rHqELcILMiizwVSVMsf1q0l0F7s-8UQ2sVNkxXsNAPH6dABC71MnoRXvR7QhbxB8QWwU45o4QyszlHc-KScT8Bio5EdSmlBg8aMUZ_8teE9xy1?></g></svg>